<?xml version="1.0" encoding="utf-8"?>
<!-- Generator: Adobe Illustrator 14.0.0, SVG Export Plug-In . SVG Version: 6.00 Build 43363)  -->
<!DOCTYPE svg PUBLIC "-//W3C//DTD SVG 1.1//EN" "http://www.w3.org/Graphics/SVG/1.1/DTD/svg11.dtd">
<svg version="1.1" id="レイヤー_1" xmlns="http://www.w3.org/2000/svg" xmlns:xlink="http://www.w3.org/1999/xlink" x="0px"
	 y="0px" width="328.351px" height="328.35px" viewBox="8.7 9.5 10 10" enable-background="new 0 0 28.351 28.35"
	 xml:space="preserve">
<g>
	<circle fill="#CCCCCC" cx="13.705" cy="17.482" r="1.002"/>
	<g>
		<g>
			<g>
				<g>
					<defs>
						<polygon id="SVGID_1_" points="13.705,17.881 5.69,9.867 13.705,9.867 21.72,9.867 						"/>
					</defs>
					<clipPath id="SVGID_2_">
						<use xlink:href="#SVGID_1_"  overflow="visible"/>
					</clipPath>
					<g clip-path="url(#SVGID_2_)">
						<path fill="#CCCCCC" d="M13.705,23.938c-3.398,0-6.163-2.766-6.163-6.164c0-3.396,2.765-6.164,6.163-6.164
							c3.399,0,6.166,2.769,6.166,6.164C19.869,21.172,17.104,23.938,13.705,23.938L13.705,23.938z M13.705,12.61
							c-2.847,0-5.163,2.316-5.163,5.164c0,2.851,2.316,5.164,5.163,5.164c2.849,0,5.166-2.313,5.166-5.164
							C18.869,14.926,16.554,12.61,13.705,12.61L13.705,12.61z"/>
						<path fill="#CCCCCC" d="M13.705,22.422c-2.562,0-4.647-2.086-4.647-4.648c0-2.562,2.085-4.646,4.647-4.646
							c2.563,0,4.649,2.085,4.649,4.646C18.354,20.337,16.269,22.422,13.705,22.422L13.705,22.422z M13.705,14.125
							c-2.011,0-3.647,1.636-3.647,3.646c0,2.015,1.637,3.648,3.647,3.648c2.011,0,3.649-1.638,3.649-3.648
							C17.354,15.762,15.716,14.125,13.705,14.125L13.705,14.125z"/>
						<path fill="#CCCCCC" d="M13.705,20.854c-1.698,0-3.08-1.381-3.08-3.08c0-1.696,1.382-3.081,3.08-3.081
							c1.7,0,3.082,1.381,3.082,3.081S15.403,20.854,13.705,20.854L13.705,20.854z M13.705,15.693c-1.146,0-2.08,0.937-2.08,2.08
							c0,1.146,0.934,2.08,2.08,2.08c1.147,0,2.082-0.934,2.082-2.08C15.787,16.627,14.853,15.693,13.705,15.693L13.705,15.693z"/>
					</g>
				</g>
			</g>
		</g>
	</g>
</g>
<g>
	<path fill="#CCCCCC" d="M16.145,18.142c-0.133,0-0.258-0.051-0.352-0.144l-5.64-5.553c-0.196-0.192-0.199-0.51-0.006-0.707
		c0.096-0.097,0.223-0.149,0.357-0.149c0.132,0,0.256,0.051,0.35,0.143l5.641,5.553c0.196,0.192,0.2,0.51,0.007,0.707
		C16.407,18.089,16.28,18.142,16.145,18.142L16.145,18.142z"/>
	<path fill="#FFFFFF" d="M10.504,11.715c0.095,0,0.19,0.036,0.262,0.107l5.64,5.553c0.148,0.146,0.15,0.383,0.006,0.53
		c-0.074,0.075-0.172,0.112-0.268,0.112s-0.191-0.036-0.264-0.107l-5.64-5.553c-0.148-0.146-0.149-0.383-0.005-0.53
		C10.311,11.752,10.408,11.715,10.504,11.715 M10.504,11.465c-0.168,0-0.326,0.066-0.445,0.186
		c-0.243,0.248-0.239,0.644,0.007,0.885l5.639,5.552c0.117,0.116,0.273,0.18,0.439,0.18s0.328-0.068,0.445-0.187
		c0.242-0.247,0.237-0.644-0.009-0.885l-5.64-5.552C10.825,11.528,10.67,11.465,10.504,11.465L10.504,11.465z"/>
</g>
</svg>
